<svg xmlns="http://www.w3.org/2000/svg" width="15" height="7" viewBox="0 0 15 7">
  <defs>
    <style>
      .cls-1 {
        fill: #e3e3e8;
        fill-rule: evenodd;
      }
    </style>
  </defs>
  <path class="cls-1" d="M-203-622H316V0H-203V-622ZM-23.92-9L-15.9-1-23.92,7l-8.021-8ZM-8.2-9l8.021,8L-8.2,7l-8.021-8ZM7.512-9l8.021,8L7.512,7-0.508-1ZM23.229-9L31.25-1,23.229,7,15.208-1ZM38.945-9l8.021,8L38.945,7,30.925-1ZM54.662-9l8.021,8L54.662,7,46.641-1ZM70.378-9L78.4-1,70.378,7,62.358-1ZM86.095-9l8.021,8L86.095,7,78.074-1Zm15.716,0,8.021,8-8.021,8L93.79-1Zm15.7,0,8.02,8-8.02,8-8.021-8Zm15.716,0,8.021,8-8.021,8L125.2-1Zm15.685,0,8.021,8-8.021,8-8.021-8Zm15.717,0,8.02,8-8.02,8L156.6-1ZM180.31-9l8.021,8L180.31,7l-8.021-8Zm15.716,0,8.021,8-8.021,8-8.02-8Zm15.686,0,8.02,8-8.02,8-8.021-8Zm15.716,0,8.021,8-8.021,8-8.021-8Zm15.685,0,8.021,8-8.021,8-8.021-8ZM258.84-9l8.021,8L258.84,7l-8.021-8ZM-180.98-9l8.02,8-8.02,8L-189-1Zm15.716,0,8.021,8-8.021,8-8.021-8Zm15.717,0,8.02,8-8.02,8-8.021-8Zm15.716,0,8.021,8-8.021,8-8.021-8Zm15.717,0,8.02,8-8.02,8-8.021-8Zm15.685,0,8.02,8-8.02,8-8.021-8Zm15.716,0,8.021,8-8.021,8-8.021-8Zm15.685,0,8.021,8-8.021,8-8.021-8Zm15.716,0,8.021,8-8.021,8-8.021-8Zm15.7,0L-31.6-1l-8.021,8-8.021-8Zm314.18,0,8.02,8-8.02,8-8.021-8Zm15.723,0,8.021,8-8.021,8-8.02-8ZM305.98-9L314-1,305.98,7l-8.021-8ZM-196.98-9l8.02,8-8.02,8L-205-1Z"/>
</svg>
