<?xml version="1.0" encoding="utf-8"?>
<!-- Generator: Adobe Illustrator 23.0.1, SVG Export Plug-In . SVG Version: 6.00 Build 0)  -->
<svg version="1.1" id="Layer_1" xmlns="http://www.w3.org/2000/svg" xmlns:xlink="http://www.w3.org/1999/xlink" x="0px" y="0px"
	 viewBox="0 0 128 128" style="enable-background:new 0 0 128 128;" xml:space="preserve">
<style type="text/css">
	.st0{fill:#FFFFFF;}
</style>
<g>
	<g>
		<g>
			<path class="st0" d="M96.5,109.5V90.6c0-6.5-2.8-12.7-7.7-16.9l-11-9.6l11-9.6c4.9-4.3,7.7-10.4,7.7-16.9V18.5c2.9-1,5-3.8,5-7
				c0-4.1-3.4-7.5-7.5-7.5H34c-4.1,0-7.5,3.4-7.5,7.5c0,3.3,2.1,6,5,7v18.9c0,6.5,2.8,12.7,7.7,16.9l11,9.6l-11,9.6
				c-4.9,4.3-7.7,10.4-7.7,16.9v18.9c-2.9,1-5,3.8-5,7c0,4.1,3.4,7.5,7.5,7.5h60c4.1,0,7.5-3.4,7.5-7.5
				C101.5,113.2,99.4,110.5,96.5,109.5z M91.5,109h-55V90.6c0-5,2.2-9.8,6-13.2l13.2-11.5c0.5-0.5,0.9-1.2,0.9-1.9
				c0-0.7-0.3-1.4-0.9-1.9L42.5,50.6c-3.8-3.3-6-8.1-6-13.2V19h55v18.4c0,5-2.2,9.8-6,13.2L72.4,62.1c-0.5,0.5-0.9,1.2-0.9,1.9
				c0,0.7,0.3,1.4,0.9,1.9l13.2,11.5c3.8,3.3,6,8.1,6,13.2L91.5,109L91.5,109z"/>
		</g>
	</g>
	<g>
		<g>
			<path class="st0" d="M86,99.9l-20-25c-0.9-1.2-3-1.2-3.9,0l-20,25c-0.6,0.7-0.7,1.8-0.3,2.6c0.4,0.9,1.3,1.4,2.2,1.4h40
				c1,0,1.8-0.5,2.3-1.4C86.7,101.7,86.6,100.7,86,99.9z"/>
		</g>
	</g>
	<g>
		<g>
			<path class="st0" d="M76.3,45.5C75.9,44.6,75,44,74,44H54c-1,0-1.9,0.6-2.3,1.5c-0.4,0.9-0.2,2,0.5,2.7l10,10
				c0.5,0.5,1.1,0.7,1.8,0.7c0.6,0,1.3-0.2,1.8-0.7l10-10C76.5,47.6,76.7,46.5,76.3,45.5z"/>
		</g>
	</g>
</g>
</svg>
