<?xml version="1.0" encoding="utf-8"?>
<!-- Generator: Adobe Illustrator 23.0.1, SVG Export Plug-In . SVG Version: 6.00 Build 0)  -->
<svg version="1.1" id="Layer_1" xmlns="http://www.w3.org/2000/svg" xmlns:xlink="http://www.w3.org/1999/xlink" x="0px" y="0px"
	 viewBox="0 0 128 128" style="enable-background:new 0 0 128 128;" xml:space="preserve">
<style type="text/css">
	.st0{fill:#FFFFFF;}
</style>
<path class="st0" d="M7.7,4C5.5,4.4,3.9,6.4,3.9,8.6v69.3c0,2.6,2.1,4.6,4.6,4.6h37v37c0,2.6,2.1,4.6,4.6,4.6h69.3
	c2.6,0,4.6-2.1,4.6-4.6V50.2c0-2.6-2.1-4.6-4.6-4.6h-37v-37C82.4,6,80.3,4,77.8,4H8.5C8.4,4,8.2,4,8.1,4C8,4,7.8,4,7.7,4z
	 M13.2,13.2h60v35.1l-3.3,3.3l6.5,6.5l3.3-3.3h35.1v60h-60V79.9l3.5-3.5L51.7,70l-3.3,3.3H13.2V13.2z M30.8,24.6l-6.5,6.5l15.4,15.6
	l-8.1,8.1h23.1V31.7l-8.4,8.4L30.8,24.6z M64.7,56.8L57,64.3l6.6,6.5l7.5-7.5L64.7,56.8z M73.2,73.3v23.1l8.1-8.1l15.6,15.4l6.5-6.5
	L87.9,81.7l8.4-8.4C96.3,73.3,73.2,73.3,73.2,73.3z"/>
</svg>
