<?xml version="1.0" encoding="utf-8"?>
<!-- Generator: Adobe Illustrator 23.0.1, SVG Export Plug-In . SVG Version: 6.00 Build 0)  -->
<svg version="1.1" id="Layer_1" xmlns="http://www.w3.org/2000/svg" xmlns:xlink="http://www.w3.org/1999/xlink" x="0px" y="0px"
	 viewBox="0 0 128 128" style="enable-background:new 0 0 128 128;" xml:space="preserve">
<style type="text/css">
	.st0{fill:#FFFFFF;}
</style>
<g>
	<g>
		<path class="st0" d="M87.3,69.2c0-9.3-7.5-16.7-16.7-16.7C61.4,52.5,54,60,54,69.2c0,9.3,7.5,16.7,16.7,16.7
			C79.8,85.8,87.3,78.4,87.3,69.2z M65.7,73H68v-6.6c0,0.1-1.1,0.1-1.8,0.1c-0.2,0-0.6,0-0.6,0V63c0,0,0.2,0,0.4,0
			c1.1,0,2-0.1,2.8-0.5c0.9-0.4,1.5-1.3,1.9-1.3h2V73H75v4.7h-9.4L65.7,73L65.7,73z"/>
		<circle class="st0" cx="46.3" cy="70" r="4.6"/>
		<circle class="st0" cx="94.9" cy="70" r="4.6"/>
		<path class="st0" d="M107.5,41.4H34.7c-4.2,0-7.7,4-7.7,8.2V75c2.3,0,1.9-0.1,3.1-0.1c1.1,0,2.8,0,2.8,0.1V57.8
			c1.2,0.1,1.6,0.2,2.3,0.2c4.2,0,8-3.4,8-7.7c0-0.7,0.1-1.9,0-1.9h56.6c-0.1,0-0.1,0.9-0.1,1.4c0,4.2,3.6,7.7,8,7.7
			c0.5,0,0.5-0.1,1.6-0.1v23.5c-1.2-0.1-1.2-0.1-1.6-0.1c-4.2,0-7.9,3.9-7.9,8.1c0,0.5-0.1,0.6,0,1.8H58.7c0,0,0-0.5,0-0.2
			c0,0.1,0,0.1,0,0.2v5.9h48.8c4.2,0,7.5-3.5,7.5-7.7V49.6C115,45.3,111.7,41.4,107.5,41.4z"/>
		<path class="st0" d="M49.7,78.2c-4.2-1.5-9.5-2.5-15.4-2.5s-11.4,0.8-15.5,2.5c-6.5,2.3-7.6,5.6-7.6,7.9v10v0.1v10v0.1v0.1v9.9
			v0.1c0,2.2,1.4,5.5,7.9,7.9c4.2,1.5,9.7,2.5,15.6,2.5s10.9-0.8,15.1-2.5c6.5-2.3,7.3-5.6,7.3-7.9v-0.1v-9.7v-0.1v-0.1v-9.7v-0.1
			v-0.1v-9.7v-0.1C57,83.9,56.1,80.6,49.7,78.2z M20.8,83.1c3.6-1.4,8.6-2.1,13.9-2.1s10.4,0.7,14.1,2.1c3.5,1.3,4.7,2.6,4.7,3.1
			v0.1c0,0.5-1.2,1.8-4.7,3.1c-3.6,1.4-8.7,2.1-14,2.1s-10.2-0.7-13.9-2.1c-3.6-1.4-4.5-2.7-4.5-3.1C16.5,85.8,17.3,84.3,20.8,83.1z
			 M53.4,116.3c0,0.4-1.1,1.6-4.7,3.1s-8.7,2.1-14,2.1s-10-0.7-13.6-2.1s-4.2-2.7-4.2-3.1v-3.2c0,0.4,1.3,0.8,2.3,1.2
			c4.2,1.5,9.6,2.5,15.5,2.5s11.6-0.8,15.8-2.5c0.9-0.4,0.5-0.7,2.8-1.2C53.4,113.1,53.4,116.3,53.4,116.3z M53.4,106.2L53.4,106.2
			c0,0.5-1.2,1.8-4.7,3.1c-3.6,1.4-8.7,2.1-14,2.1s-10-0.7-13.6-2.1s-4.2-2.7-4.2-3.1V103c0,0.4,1.3,0.8,2.3,1.2
			c4.2,1.5,9.6,2.5,15.5,2.5s11.4-0.8,15.5-2.5c0.9-0.4,2.1-0.7,2.8-1.2L53.4,106.2z M53.4,96.1L53.4,96.1c0,0.5-1.2,1.8-4.7,3.1
			c-3.6,1.4-8.7,2.1-14,2.1s-10-0.7-13.6-2.1s-4.2-2.7-4.2-3.1v-3.2c0,0.4,1.3,0.8,2.3,1.2c4.2,1.5,9.6,2.5,15.5,2.5
			s11.4-0.8,15.5-2.5c0.9-0.4,2.1-0.7,2.8-1.2L53.4,96.1z"/>
	</g>
	<g>
		<path class="st0" d="M95.9,2.4l18.6,17c0.3,0.3,0.5,0.6,0.5,1.1c0,0.4-0.2,0.9-0.5,1.2L95.9,38.9c-0.5,0.4-1.1,0.5-1.7,0.2
			c-0.5-0.2-1-0.7-1-1.4V26.9H62.4c-0.9,0-1.6-0.6-1.6-1.6v-9.4c0-0.9,0.6-1.6,1.6-1.6h30.8V3.5c0-0.6,0.3-1.2,1-1.4
			C94.7,2,95.3,2.1,95.9,2.4z"/>
	</g>
</g>
</svg>
