<?xml version="1.0" encoding="utf-8"?>
<!-- Generator: Adobe Illustrator 23.0.1, SVG Export Plug-In . SVG Version: 6.00 Build 0)  -->
<svg version="1.1" id="Capa_1" xmlns="http://www.w3.org/2000/svg" xmlns:xlink="http://www.w3.org/1999/xlink" x="0px" y="0px"
	 viewBox="0 0 512 512" style="enable-background:new 0 0 512 512;" xml:space="preserve">
<style type="text/css">
	.st0{fill:#FFFFFF;}
</style>
<g>
	<g>
		<path class="st0" d="M507.4,108.6c-2.8-2-6.5-2.5-9.8-1.3l-87,31.6c-10.8,3.9-19.4,11.8-24.2,22.2c-0.9,2-1.5,4-2.1,6
			c-14.9-4.2-42.7-13.1-70.3-27.3c-35.6-18.3-65.7-16-100.2,9.9c-13.9,0.2-33.3,1.9-52.3,3.6c-12,1.1-23.3,2-32.4,2.6
			c-0.2-5.5-1.5-11-3.9-16.1c-4.8-10.4-13.4-18.3-24.2-22.2L14.3,86c-3.3-1.2-6.9-0.7-9.8,1.3C1.7,89.3,0,92.5,0,96v213.3
			c0,5.9,4.8,10.7,10.7,10.7h31.2c13.3,0,25.6-6.3,33.5-16.3c4.2,3.2,9.3,7,14.5,11c12.4,9.4,26.1,19.6,32.1,24.6
			c39.7,33.3,87.5,69.2,97,75.4c8.9,5.8,24.9,12,37.1,12c4.8,0,16.8,0,25.2-7.1c8.7,3.4,18,3.2,26.7-0.6c8.7-3.8,15.7-11,19.8-19.8
			c8.3,1.7,17.9,0.5,26.6-3.9c8.1-4.1,14.1-10.2,17.3-17.4c7.7,0.7,15.9-1.8,23.3-7.4c10.5-8,15.3-19.9,14-31.6l27.1-15
			c7.9,10.7,20.5,17.6,34.2,17.6h31.2c5.9,0,10.7-4.8,10.7-10.7V117.3C512,113.9,510.3,110.6,507.4,108.6z M381.9,353.4
			c-3.6,2.8-8.7,4.3-10.9,2.1c-0.1-0.1-0.3-0.1-0.4-0.2c-0.2-0.2-0.3-0.4-0.5-0.6c-7.6-6-41.8-41-62.9-63
			c-4.1-4.3-10.8-4.4-15.1-0.3c-4.3,4.1-4.4,10.8-0.3,15.1c5,5.2,44.7,46.6,60.7,61.1c-1.2,4.7-5.5,7.6-7.7,8.7
			c-6.8,3.4-14,2.9-16.6,0.4c-0.1-0.1-0.2-0.1-0.3-0.1c-0.1-0.1-0.2-0.3-0.3-0.4c-12.8-10.2-44.9-44.3-52.1-52.2
			c-4-4.3-10.7-4.6-15.1-0.6c-4.3,4-4.6,10.7-0.6,15.1c0.4,0.4,31.8,34.3,49.5,50.1c-1.7,5-5.3,9.1-9.8,11.1
			c-3.3,1.5-8.6,2.3-14.6-2.2c-15.3-13-46.1-45.7-52.1-52.2c-4-4.3-10.8-4.5-15.1-0.5c-4.3,4-4.5,10.8-0.5,15.1
			c7.2,7.7,28.4,30.1,44.5,45.3c-1.8,0.2-3.7,0.3-5.5,0.3c-7.1,0-19.2-4.5-25.3-8.5c-7.5-4.9-54.4-40-95-73.9
			c-6.1-5.1-20.1-15.7-32.9-25.3c-6.9-5.2-13.2-9.9-17.9-13.5l39.9-106.5c10.4-0.5,24.2-1.6,38.8-2.9c8.3-0.7,16.6-1.4,24.5-2.1
			c-12.2,12.5-30.2,34.9-27.9,55.8c1.1,9.5,6.3,17.5,15.1,23c5,3.1,11.2,4.7,18.3,4.7c15.2,0,35.2-7.6,46.9-22.1
			c10-1.4,16.8-4,24.2-7.7c12.5,11.8,29.3,25.6,46.9,40.1c30.6,25.3,65.4,53.9,74.6,69.9C391.3,345.3,384.2,351.7,381.9,353.4z"/>
	</g>
</g>
</svg>
