<?xml version="1.0" encoding="utf-8"?>
<!-- Generator: Adobe Illustrator 23.0.1, SVG Export Plug-In . SVG Version: 6.00 Build 0)  -->
<svg version="1.1" id="Layer_1" xmlns="http://www.w3.org/2000/svg" xmlns:xlink="http://www.w3.org/1999/xlink" x="0px" y="0px"
	 viewBox="0 0 128 128" style="enable-background:new 0 0 128 128;" xml:space="preserve">
<style type="text/css">
	.st0{fill:#FFFFFF;}
</style>
<g>
	<path class="st0" d="M113.7,70.7c0-17.5-9.1-32.9-22.8-41.7l2.2-3.8c4.8,3.1,9.1,7,12.7,11.4l3.5-9.1c1.2-4-2.6-8.8-9.9-13.4
		l3.6-6.4l0,0c0.2-0.4,0.3-0.8,0.3-1.2c0-1.3-1.1-2.4-2.4-2.4c-0.9,0-1.7,0.5-2.1,1.2l0,0l-3.6,6.3c-7.9-4.2-14.1-5.2-17.1-2.1
		L72,17.2c6,0.9,11.7,2.8,16.9,5.6l-2.2,3.8C79.9,23,72.2,21,64,21s-15.9,2-22.8,5.5L39,22.7c5.3-2.7,11-4.6,17-5.5l-6.2-7.7
		c-3-3.1-9.2-2.1-17.1,2.1l-3.6-6.3l0,0c-0.4-0.7-1.2-1.2-2.1-1.2c-1.3,0-2.4,1.1-2.4,2.4c0,0.4,0.1,0.8,0.3,1.2l0,0l3.6,6.4
		c-7.3,4.6-11.1,9.4-9.9,13.4l3.5,9.1c3.6-4.4,7.9-8.3,12.7-11.4L37,29c-13.7,8.9-22.8,24.2-22.8,41.7c0,17.7,9.3,33.2,23.2,42
		l-4.4,7.8l0,0c-0.2,0.4-0.3,0.8-0.3,1.2c0,1.3,1.1,2.4,2.4,2.4c0.9,0,1.7-0.5,2.1-1.2l0,0l4.4-7.8c6.7,3.4,14.3,5.3,22.3,5.3
		s15.6-1.9,22.3-5.3l4.4,7.8l0,0c0.4,0.7,1.2,1.2,2.1,1.2c1.3,0,2.4-1.1,2.4-2.4c0-0.4-0.1-0.8-0.3-1.2l0,0l-4.4-7.8
		C104.4,103.9,113.7,88.3,113.7,70.7z M64,113.1c-23.4,0-42.5-19.1-42.5-42.5S40.6,28.1,64,28.1s42.5,19.1,42.5,42.5
		C106.5,94.1,87.4,113.1,64,113.1z"/>
	<path class="st0" d="M69,70l15.4-15.4c1.6-1.6,1.6-4.1,0-5.6c-1.6-1.6-4.1-1.6-5.6,0L63.4,64.4l-15-14.9c-1.6-1.6-4.1-1.6-5.6,0
		c-1.6,1.6-1.6,4.1,0,5.6L57.7,70L42.8,84.9c-1.6,1.6-1.6,4.1,0,5.6c1.6,1.6,4.1,1.6,5.6,0l14.9-14.9l15.5,15.5
		c1.6,1.6,4.1,1.6,5.6,0c1.6-1.6,1.6-4.1,0-5.6L69,70z"/>
</g>
</svg>
