<?xml version="1.0" encoding="utf-8"?>
<!-- Generator: Adobe Illustrator 23.0.1, SVG Export Plug-In . SVG Version: 6.00 Build 0)  -->
<svg version="1.1" id="Layer_1" xmlns="http://www.w3.org/2000/svg" xmlns:xlink="http://www.w3.org/1999/xlink" x="0px" y="0px"
	 viewBox="0 0 128 128" style="enable-background:new 0 0 128 128;" xml:space="preserve">
<style type="text/css">
	.st0{fill:#FFFFFF;}
</style>
<g>
	<g>
		<path class="st0" d="M88.9,50.6h6.9c1.1,0,2-1.3,2-2.5c0-1.1-1-2.5-2-2.5h-6.9c-1.1,0-2,1.3-2,2.5C86.8,49.3,87.7,50.6,88.9,50.6z
			"/>
		<path class="st0" d="M88.9,60.4h6.5c1.1,0,2-1.3,2-2.5s-0.9-2.5-2-2.5h-6.5c-1.1,0-2,1.3-2,2.5C86.8,59.1,87.7,60.4,88.9,60.4z"/>
		<path class="st0" d="M95.8,65.3h-6.5c-1.1,0-2,2-2,3.1s0.9,3.1,2,3.1h6.5c1.1,0,2-2,2-3.1S96.9,65.3,95.8,65.3z"/>
		<path class="st0" d="M88.7,81.3h7.1c1.1,0,2-1.3,2-2.5s-0.9-2.5-2-2.5h-7.1c-1.1,0-2,1.3-2,2.5S87.6,81.3,88.7,81.3z"/>
		<path class="st0" d="M88.7,92.3h7.1c1.1,0,2-2,2-3.1s-0.9-3.1-2-3.1h-7.1c-1.1,0-2,2-2,3.1S87.6,92.3,88.7,92.3z"/>
		<path class="st0" d="M55.2,97.2c-1.1,0-2,1.3-2,2.5s0.9,2.5,2,2.5h40.6c1.1,0,2-1.3,2-2.5s-0.9-2.5-2-2.5H55.2z"/>
		<path class="st0" d="M116.1,32.4c-0.5-0.4-1.2-0.6-2-0.5c-0.2,0-0.9,0-1.2,0.1H89.6v4.8l14.6,0.1c-1.3,2.3-2.3,5.5-2.3,8.8v11.2
			c0,0.2,0,0.4,0,0.6v4.8V109v6.9l-5.1-5.5c-1-1-2.6-1-3.6,0l-8.2,8.3l-8.2-8.3c-0.5-0.5-1.1-0.7-1.8-0.7c-0.7,0-1.3,0.2-2,0.7
			l-8.2,8.3l-8.2-8.3c-0.5-0.5-1.1-0.7-2-0.7c-0.6,0-1.5,0.2-2.1,0.7l-5.8,5.6V98.5h-4.9v24.3c0,1,0.6,2.1,1.7,2.5
			c1,0.4,2.2,0.1,2.8-0.5l8.3-8.1l8.3,8.3c0.5,0.5,1.1,0.7,2,0.7c0.7,0,1.3-0.2,2-0.7l8.3-8.3l8.3,8.3c0.5,0.5,1.1,0.7,2,0.7
			s1.3-0.2,2-0.7l8.3-8.3l8.1,8.1c0.7,0.7,2.6,1,3.4,0.5c1-0.4,2.3-1.3,2.3-2.5v-13.5V62.4v-2h14c1.3,0,3.2-1.2,3.2-2.8V45.7
			C126.5,39.6,121.9,34.1,116.1,32.4z M121.6,54.3h-1.1h-11.2v-8.7c0-1.8,0.2-7.5,5.3-8.6c4,0.7,7,4.3,7,8.6
			C121.6,45.6,121.6,54.3,121.6,54.3z"/>
	</g>
	<g>
		<path class="st0" d="M55.2,15.4H15.3c-1.1,0-2,1.3-2,2.5s0.9,2.5,2,2.5h39.8c1.1,0,2-1.3,2-2.5C57.1,16.7,56.1,15.4,55.2,15.4z"/>
		<path class="st0" d="M56.8,28.8c0-1.1-0.9-2.5-2-2.5H15.3c-1.1,0-2,1.3-2,2.5s0.9,2.5,2,2.5h39.4C55.8,31.3,56.8,29.9,56.8,28.8z"
			/>
		<path class="st0" d="M29,38.7c0-1.1-0.9-2.5-2-2.5H15.4c-1.1,0-2,1.3-2,2.5s0.9,2.5,2,2.5H27C28.1,41.1,29,39.8,29,38.7z"/>
		<path class="st0" d="M25.9,52.1c1.1,0,2-1.3,2-2.5c0-1.1-0.9-2.5-2-2.5H15.3c-1.1,0-2,1.3-2,2.5c0,1.1,0.9,2.5,2,2.5H25.9z"/>
		<path class="st0" d="M27.9,59.5c0-1.1-0.9-2.5-2-2.5H15.4c-1.1,0-2,1.3-2,2.5s0.9,2.5,2,2.5H26C27,61.9,27.9,60.6,27.9,59.5z"/>
		<path class="st0" d="M24.8,68.1h-9.4c-1.1,0-2,1.3-2,2.5s0.9,2.5,2,2.5h9.4c1.1,0,2-1.3,2-2.5S25.9,68.1,24.8,68.1z"/>
		<path class="st0" d="M34.6,80.2c-0.7,0-1.5,0.2-2,0.7l-8.3,8.3L15.9,81c-0.5-0.5-1.1-0.7-2-0.7c-0.6,0-1.6,0.2-2.2,0.7L6,86.6
			V16.2c0-4.5,4-9.4,8.5-9.4c0.1,0,0.1,0,0.2,0l49.2,0.5c-1.3,2.3-2.7,5.6-2.7,9v11.2c0,0.1,0,8.8,0,19.9h7.4V32.9v-1.6h14.2
			c1.3,0,2.9-1.7,2.9-3.2V16.2c0-6.3-4.5-11.8-10.3-13.4c-0.5-0.4-1.2-0.6-1.8-0.5c-0.2,0-0.5,0-0.7,0.1l-58.6,0
			c-0.2,0-0.6,0-0.7,0.1C6.6,3.2,1.1,9.2,1.1,16.3v76.8c0,1,0.7,2.1,1.8,2.5c1,0.4,2.2,0.1,2.8-0.5L14,87l8.3,8.3
			c0.5,0.5,1.1,0.7,2,0.7c0.7,0,1.3-0.2,2-0.7l8.8-8.3l2.8,2.3v-7.7l-1-0.6C36.3,80.6,35.3,80.2,34.6,80.2z M68.5,16.1
			c0-1.8,0.2-7.5,5.3-8.6c4,0.7,7,4.3,7,8.6v7.8h-0.9H68.5V16.1z"/>
	</g>
	<g>
		<polygon class="st0" points="46,48.1 53.3,41.1 33.7,41.1 33.7,60.6 40.4,53.6 53.9,67 59.5,61.4 		"/>
		<polygon class="st0" points="55.9,69.2 69.4,82.5 62.3,89.3 82.9,89.3 82.9,69.7 75.3,77 61.8,63.5 		"/>
	</g>
</g>
</svg>
