<?xml version="1.0" encoding="utf-8"?>
<!-- Generator: Adobe Illustrator 23.0.1, SVG Export Plug-In . SVG Version: 6.00 Build 0)  -->
<svg version="1.1" id="Layer_1" xmlns="http://www.w3.org/2000/svg" xmlns:xlink="http://www.w3.org/1999/xlink" x="0px" y="0px"
	 viewBox="0 0 128 128" style="enable-background:new 0 0 128 128;" xml:space="preserve">
<style type="text/css">
	.st0{fill:#FFFFFF;}
</style>
<g>
	<path class="st0" d="M22.4,113.7c0.1,1.8,1.9,3.2,4,3.2h2.2c2.2,0,4-1.5,4-3.4v-55h-15L22.4,113.7z"/>
	<path class="st0" d="M40.3,73.6c0.1,1.4,1.5,2.6,3.2,2.6h1.8c1.8,0,3.2-1.2,3.2-2.7v-15H39L40.3,73.6z"/>
	<path class="st0" d="M79.6,73.5c0,1.5,1.4,2.7,3.2,2.7h1.8c1.7,0,3.1-1.1,3.2-2.6l1.3-15.1h-9.5V73.5z"/>
	<path class="st0" d="M95.1,113.5c0,1.9,1.8,3.4,4,3.4h2.2c2.1,0,3.9-1.4,4-3.2l4.7-55.2H95L95.1,113.5z"/>
	<path class="st0" d="M123.5,47l-16.9-31.9c-1.3-2.3-3.7-4.2-6.4-4.2H28.1c-2.7,0-5.1,1.8-6.4,4.2c0,0-13.8,25.9-16.9,31.7
		c-0.4,0.7-0.6,1.7-0.5,2.5l0.3,3.3C4.7,54.2,6,55,7.5,55h113.2c1.5,0,2.8-0.8,2.9-2.3c0,0,0.2-2,0.3-3.4
		C124.1,48.4,123.9,47.8,123.5,47z M94.7,26.7L76.2,42c-0.7,0.6-1.5,0.7-2.4,0.3c-0.8-0.2-1.4-0.9-1.5-1.7l-1-9.4H34.7
		c-1,0-1.6-0.6-1.2-1.4l3.4-7.3c0.2-0.6,1.1-1.1,2.1-1.1h31.5l-0.6-6.5c0-0.3,0.2-0.6,0.8-0.7c0.5,0,1.1,0,1.6,0.2l21.6,10.7
		c0.4,0.3,0.8,0.5,1,0.7C95,26.1,94.9,26.4,94.7,26.7z"/>
</g>
</svg>
