<?xml version="1.0" encoding="utf-8"?>
<!-- Generator: Adobe Illustrator 23.0.1, SVG Export Plug-In . SVG Version: 6.00 Build 0)  -->
<svg version="1.1" id="Layer_1" xmlns="http://www.w3.org/2000/svg" xmlns:xlink="http://www.w3.org/1999/xlink" x="0px" y="0px"
	 viewBox="0 0 128 128" style="enable-background:new 0 0 128 128;" xml:space="preserve">
<style type="text/css">
	.st0{fill:#FFFFFF;}
</style>
<g>
	<path class="st0" d="M50.2,97H24c-1.4,0-2.6,1.1-2.6,2.5s1.1,2.5,2.6,2.5h26.1c1.4,0,2.6-1.1,2.6-2.5S51.6,97,50.2,97z"/>
	<path class="st0" d="M24,89h21.9c1.4,0,2.6-1.6,2.6-3s-1.1-3-2.6-3H24c-1.4,0-2.6,1.6-2.6,3C21.5,87.4,22.6,89,24,89z"/>
	<path class="st0" d="M24,74h20.4c1.4,0,2.6-1.6,2.6-3s-1.1-3-2.6-3H24c-1.4,0-2.6,1.6-2.6,3C21.5,72.4,22.6,74,24,74z"/>
	<path class="st0" d="M24,60h27.5c1.4,0,2.6-1.6,2.6-3s-1.1-3-2.6-3H24c-1.4,0-2.6,1.6-2.6,3C21.5,58.4,22.6,60,24,60z"/>
	<path class="st0" d="M24,46h43.1c1.4,0,2.6-1.6,2.6-3s-1.1-3-2.6-3H24c-1.4,0-2.6,1.6-2.6,3C21.5,44.4,22.6,46,24,46z"/>
	<path class="st0" d="M124.1,80c0-19.5-15-35.4-34.1-37v-9.4v-0.1c0-0.8-0.2-1.5-0.8-2l-25-24.8c-0.4-0.6-1-0.7-1.8-0.7h-0.1H13.8
		C8.2,6,4,10,4,15.7v97.1c0,5.6,4.2,9.3,9.8,9.3h66.4c4.1,0,7.4-1.9,8.9-5.2C108.6,115.8,124.1,99.8,124.1,80z M65,14.1L81.8,31H65
		V14.1z M10,112.8V15.7c0-2.8,1-3.7,3.8-3.7H59v21.5c0,1.4,1.9,2.5,3.4,2.5H84v7c-19.1,1.5-34.1,17.4-34.1,36.9
		c0,17.7,12.4,32.5,29,36.2H13.8C11,116.1,10,115.7,10,112.8z M104.5,88.7c0.5,0.6,0.9,1.4,0.8,2.1c0,0.8-0.3,1.6-0.9,2.2l-4.3,4.3
		c-0.6,0.6-1.4,0.9-2.2,0.9c-0.8,0-1.6-0.3-2.2-0.9L87,88.6l-8.7,8.7c-0.6,0.6-1.4,0.9-2.2,0.9c-0.8,0-1.6-0.3-2.2-0.9L69.6,93
		c-0.6-0.6-0.9-1.4-0.9-2.2s0.3-1.6,0.9-2.2l8.7-8.7l-8.7-8.7c-0.6-0.6-0.9-1.4-0.9-2.2s0.3-1.6,0.9-2.2l4.3-4.3
		c0.6-0.6,1.4-0.9,2.2-0.9c0.8,0,1.6,0.3,2.2,0.9l8.7,8.7l8.7-8.6c0.6-0.6,1.4-0.9,2.2-0.9c0.8,0,1.6,0.3,2.2,0.9l4.3,4.3
		c0.6,0.6,0.9,1.4,0.9,2.2c0,0.8-0.3,1.6-0.9,2.2L95.7,80L104.5,88.7z"/>
</g>
</svg>
