<?xml version="1.0" encoding="utf-8"?>
<!-- Generator: Adobe Illustrator 23.0.1, SVG Export Plug-In . SVG Version: 6.00 Build 0)  -->
<svg version="1.1" id="Layer_1" xmlns="http://www.w3.org/2000/svg" xmlns:xlink="http://www.w3.org/1999/xlink" x="0px" y="0px"
	 viewBox="0 0 128 128" style="enable-background:new 0 0 128 128;" xml:space="preserve">
<style type="text/css">
	.st0{fill:#FFFFFF;}
</style>
<g>
	<g>
		<path class="st0" d="M22.2,27h50.9c1.3,0,2.6-1,2.6-2.5S74.5,22,73.1,22H22.2c-1.3,0-2.6,1-2.6,2.5C19.7,26,20.8,27,22.2,27z"/>
		<path class="st0" d="M22.2,41h50.3c1.3,0,2.6-1.5,2.6-3s-1.1-3-2.6-3H22.2c-1.3,0-2.6,1.5-2.6,3C19.7,39.5,20.8,41,22.2,41z"/>
		<path class="st0" d="M22.2,54h37.1c1.3,0,2.6-1.5,2.6-3s-1.1-3-2.6-3H22.2c-1.3,0-2.6,1.5-2.6,3C19.7,52.5,20.8,54,22.2,54z"/>
		<path class="st0" d="M22.2,67H49c1.3,0,2.6-1.5,2.6-3s-1.1-3-2.6-3H22.2c-1.3,0-2.6,1.5-2.6,3C19.7,65.5,20.8,67,22.2,67z"/>
		<path class="st0" d="M22.2,80h22.4c1.3,0,2.6-1,2.6-2.5S46.1,75,44.6,75H22.2c-1.3,0-2.6,1-2.6,2.5C19.7,79,20.8,80,22.2,80z"/>
		<path class="st0" d="M43.1,88H22.2c-1.3,0-2.6,1.5-2.6,3s1.1,3,2.6,3h20.9c1.3,0,2.6-1.5,2.6-3C45.7,89.5,44.6,88,43.1,88z"/>
		<g>
			<path class="st0" d="M59.6,115.6L49,105c-0.7-0.7-1.5-1-2.4-1c-1,0-1.8,0.3-2.4,1l-10.6,10.6L22.9,105c-0.7-0.7-1.5-1-2.4-1
				c-0.8,0-1.7,0.3-2.4,1l-7.1,7.2V22.1C11,16.3,15.4,11,21.1,11c0.2,0,0.2,0,0.3,0L85,11.2c-1.8,2.9-3,6.7-3,10.9v14.3
				c0,0.3,0,0.5,0,0.8v6.3v5.1c1-0.1,1.6-0.1,2.5-0.1c1.6,0,3.5,0.1,4.5,0.3v-5.3V41h19.4c1.8,0,2.6-1.8,2.6-3.7V22.1
				c0-8-5.3-15-12.6-17.1c-0.7-0.5-1.2-0.8-2.1-0.7c-0.3,0-0.5,0-0.9,0.2L20.9,4.4c-0.3,0-0.8,0-1,0.2c-9,1-16,8.6-16,17.8v98.2
				c0,1.3,1,2.6,2.3,3.1s2.9,0.2,3.7-0.7l10.6-10.4l10.6,10.6c0.7,0.7,1.5,1,2.5,1s1.8-0.3,2.4-1l10.6-10.6l10.6,10.6
				c0.7,0.7,1.5,1,2.4,1s1.8-0.3,2.4-1l6.3-6.3c-2.2-1.1-4.2-2.4-6.1-3.9L59.6,115.6z M89,22c0-2.3,0.9-9.6,7.4-10.9
				c5.2,1,9.6,5.5,9.6,10.9v11h-1.1H89V22z"/>
			<path class="st0" d="M80.7,120.5l2.5,2.5c1,1,2.5,1.3,3.6,0.7c1.3-0.5,2.2-1.8,2.2-3.1v-0.1c-1,0.2-2.9,0.3-4.4,0.3
				C83.2,120.7,82,120.6,80.7,120.5z"/>
		</g>
	</g>
	<g>
		<path class="st0" d="M85.3,123.9c-21.2,0-38.5-17.2-38.5-38.5S64,46.9,85.3,46.9s38.5,17.2,38.5,38.5S106.5,123.9,85.3,123.9z
			 M103.4,94.5l-9.1-9.1l9.1-9.1c0.6-0.6,1-1.4,1-2.3s-0.4-1.7-1-2.3l-4.5-4.5c-0.6-0.6-1.5-1-2.3-1s-1.7,0.4-2.3,1l-9.1,9.1
			l-9.1-9.1c-0.6-0.6-1.4-1-2.3-1s-1.7,0.4-2.3,1L67,71.7c-0.6,0.6-1,1.5-1,2.3s0.4,1.7,1,2.3l9.1,9.1L67,94.5c-0.6,0.6-1,1.4-1,2.3
			s0.4,1.7,1,2.3l4.5,4.5c0.6,0.6,1.5,1,2.3,1s1.7-0.4,2.3-1l9.1-9.1l9.1,9.1c0.6,0.6,1.4,1,2.3,1s1.7-0.4,2.3-1l4.5-4.5
			c0.6-0.6,1-1.5,1-2.3C104.3,95.9,104,95.1,103.4,94.5z"/>
	</g>
</g>
</svg>
