<?xml version="1.0" encoding="utf-8"?>
<!-- Generator: Adobe Illustrator 23.0.1, SVG Export Plug-In . SVG Version: 6.00 Build 0)  -->
<svg version="1.1" id="Layer_1" xmlns="http://www.w3.org/2000/svg" xmlns:xlink="http://www.w3.org/1999/xlink" x="0px" y="0px"
	 viewBox="0 0 128 128" style="enable-background:new 0 0 128 128;" xml:space="preserve">
<style type="text/css">
	.st0{fill:#FFFFFF;}
</style>
<g>
	<path class="st0" d="M19.9,25c0,1.4,1.1,3,2.5,3h50c1.3,0,2.5-1.6,2.5-3s-1.2-3-2.5-3h-50C21.1,22,19.9,23.6,19.9,25z"/>
	<path class="st0" d="M71.9,35H22.4c-1.3,0-2.5,1.6-2.5,3s1.1,3,2.5,3h49.5c1.3,0,2.5-1.6,2.5-3S73.3,35,71.9,35z"/>
	<path class="st0" d="M58.8,49H22.4c-1.3,0-2.5,1.1-2.5,2.5S21,54,22.4,54h36.4c1.3,0,2.5-1.1,2.5-2.5C61.4,50.1,60.3,49,58.8,49z"
		/>
	<path class="st0" d="M48.7,61H22.4c-1.3,0-2.5,1.6-2.5,3s1.1,3,2.5,3h26.3c1.3,0,2.5-1.6,2.5-3C51.2,62.6,50.1,61,48.7,61z"/>
	<path class="st0" d="M44.4,74h-22c-1.3,0-2.5,2.1-2.5,3.5S21,81,22.4,81h22c1.3,0,2.5-2.1,2.5-3.5S45.8,74,44.4,74z"/>
	<path class="st0" d="M42.9,88H22.4c-1.3,0-2.5,1.1-2.5,2.5S21,93,22.4,93h20.5c1.3,0,2.5-1.1,2.5-2.5S44.4,88,42.9,88z"/>
	<g>
		<path class="st0" d="M97.3,73.5c1.2,2,1.8,4.3,1.8,6.6c0,7.3-5.9,13.2-13.2,13.2c-7.3,0-13.2-5.9-13.2-13.2c0-2.3,0.6-4.6,1.8-6.6
			c-4.6,2.4-8.4,6.1-11.3,10.4c5.1,7.8,13.2,13.2,22.7,13.2s17.6-5.4,22.7-13.2C105.7,79.6,101.9,75.8,97.3,73.5z"/>
		<path class="st0" d="M88,47.3v-3.5V41h19.1c1.8,0,2.9-1.5,2.9-3.5V22.7c0-7.8-5.4-14.7-12.6-16.8c-0.6-0.5-1.3-0.8-2.1-0.6
			c-0.3,0-0.6,0-0.9,0.2L21.1,5.2c-0.3,0-1,0-1.2,0.2C11.1,6.3,4,13.9,4,22.8v96.5c0,1.3,1.2,2.6,2.5,3c1.3,0.5,2.9,0.2,3.7-0.6
			l10.5-10.2l10.5,10.4c0.6,0.6,1.5,1,2.4,1c1,0,1.8-0.3,2.4-1l10.4-10.4l10.4,10.4c0.6,0.6,1.4,1,2.4,1s1.8-0.3,2.4-1l4.7-4.7
			c5.8,3.6,12.6,5.7,19.9,5.7c20.9,0,37.6-16.9,37.6-37.8C123.8,64.9,108,48.4,88,47.3z M88,22.5c0-2.2,1.1-9.4,7.5-10.7
			c5.1,1,9.5,5.4,9.5,10.7V34h-1.4H88V22.5z M59.1,114.5l-10.4-10.4c-0.6-0.6-1.4-1-2.4-1s-1.8,0.3-2.4,1l-10.4,10.4l-10.4-10.4
			c-0.6-0.6-1.4-1-2.4-1c-0.8,0-1.9,0.3-2.5,1l-7.2,7V22.7C11,16.9,15.7,12,21.3,12c0.2,0,0.2,0,0.3,0H84c-1.8,2.9-3,6.4-3,10.6
			v14.1c0,0.3,0,0.5,0,0.8v6.2v3.8C63,50,48.3,65.9,48.3,85c0,11,4.8,21,12.3,27.9L59.1,114.5z M111.7,85.9c-5.4,9-15.4,15-25.9,15
			s-20.4-6.1-25.9-15c-0.4-0.6-0.6-1.3-0.6-2s0.2-1.4,0.6-2c5.4-8.9,15.4-15,25.9-15s20.4,6.1,25.9,15c0.4,0.6,0.6,1.3,0.6,2
			C112.3,84.6,112.1,85.3,111.7,85.9z"/>
		<path class="st0" d="M78.3,81.5c0.8,0,1.4-0.7,1.4-1.4c0-3.4,2.8-6.1,6.1-6.1c0.8,0,1.4-0.7,1.4-1.4c0-0.8-0.7-1.4-1.4-1.4
			c-4.9,0-9,4-9,9C76.9,80.9,77.5,81.5,78.3,81.5z"/>
	</g>
</g>
</svg>
