<?xml version="1.0" encoding="utf-8"?>
<!-- Generator: Adobe Illustrator 23.0.1, SVG Export Plug-In . SVG Version: 6.00 Build 0)  -->
<svg version="1.1" id="Layer_1" xmlns="http://www.w3.org/2000/svg" xmlns:xlink="http://www.w3.org/1999/xlink" x="0px" y="0px"
	 viewBox="0 0 155 40" style="enable-background:new 0 0 155 40;" xml:space="preserve">
<style type="text/css">
	.st0{clip-path:url(#SVGID_2_);fill:#FFFFFF;}
	.st1{clip-path:url(#SVGID_4_);fill:#767BB3;}
	.st2{clip-path:url(#SVGID_6_);fill:#767BB3;}
	.st3{clip-path:url(#SVGID_8_);fill:#FFFFFF;}
	.st4{clip-path:url(#SVGID_10_);fill:#FFFFFF;}
</style>
<g>
	<g>
		<defs>
			<rect id="SVGID_1_" x="1.7" y="1.5" width="151.6" height="37"/>
		</defs>
		<clipPath id="SVGID_2_">
			<use xlink:href="#SVGID_1_"  style="overflow:visible;"/>
		</clipPath>
		<path class="st0" d="M31.4,28.3c0-1.6-1.3-2.9-2.9-2.9c-1.6,0-2.9,1.3-2.9,2.9s1.3,2.9,2.9,2.9C30.1,31.2,31.4,29.9,31.4,28.3
			 M34.6,32.8c0-1.1-0.9-2-2-2c-1.1,0-2,0.9-2,2c0,1.1,0.9,2,2,2C33.7,34.8,34.6,33.9,34.6,32.8"/>
	</g>
	<g>
		<defs>
			<rect id="SVGID_3_" x="1.7" y="1.5" width="151.6" height="37"/>
		</defs>
		<clipPath id="SVGID_4_">
			<use xlink:href="#SVGID_3_"  style="overflow:visible;"/>
		</clipPath>
		<path class="st1" d="M59.5,18.6H56v14.5h3.5V18.6z M26.7,17.9c0,4.8-3.9,8.7-8.7,8.7s-8.7-3.9-8.7-8.7s3.9-8.7,8.7-8.7
			S26.7,13.1,26.7,17.9 M32.1,26.2c1.4-2.4,2.3-5.3,2.3-8.3c0-9-7.3-16.3-16.3-16.3S1.7,8.8,1.7,17.9S9,34.2,18,34.2
			c3,0,5.9-0.8,8.4-2.3c-1.2-0.7-2-2-2-3.5c0-2.3,1.9-4.2,4.2-4.2C30,24.2,31.3,25,32.1,26.2 M47.8,33.1h3.8V18.5h-4v7.1
			c0,1.9-0.6,4.3-3.5,4.3c-2.5,0-2.6-1.9-2.6-3.6v-7.7h-4v9.1c0,3.3,1.8,5.7,5.4,5.7c2.1,0,3.5-0.9,4.7-2.3h0.1L47.8,33.1L47.8,33.1
			z M59.7,14.4c0-1.1-0.9-2-2-2c-1.1,0-2,0.9-2,2s0.9,2,2,2C58.8,16.3,59.7,15.4,59.7,14.4 M74.5,25.9c0,2.5-1.9,4.5-4.2,4.5
			s-4.2-2-4.2-4.5s1.9-4.5,4.2-4.5S74.5,23.4,74.5,25.9 M77.9,38.5V18.6h-3.5v2.1c-1.3-1.5-3-2.4-5-2.4c-3.8,0-6.9,3.4-6.9,7.5
			s3.1,7.5,6.9,7.5c2,0,3.8-0.9,5-2.4v7.4L77.9,38.5L77.9,38.5z"/>
	</g>
	<g>
		<defs>
			<rect id="SVGID_5_" x="1.7" y="1.5" width="151.6" height="37"/>
		</defs>
		<clipPath id="SVGID_6_">
			<use xlink:href="#SVGID_5_"  style="overflow:visible;"/>
		</clipPath>
		<path class="st2" d="M124.7,33.2c2-0.9,3.7-2.1,5.1-3.6s2.5-3.3,3.3-5.2c0.8-2,1.2-4,1.2-6.2c0-2-0.4-4-1.1-6s-1.8-3.7-3.2-5.3
			s-3.1-2.8-5-3.7s-4.2-1.4-6.5-1.4c-2.3,0-4.5,0.4-6.4,1.3c-2,0.9-3.7,2.1-5.1,3.6s-2.6,3.3-3.4,5.2c-0.8,2-1.2,4-1.2,6.2
			c0,2.1,0.4,4.1,1.2,6.1c0.8,2,1.8,3.7,3.3,5.3c1.4,1.5,3.1,2.8,5,3.7c2,0.9,4.2,1.4,6.5,1.4C120.6,34.6,122.7,34.1,124.7,33.2"/>
	</g>
	<g>
		<defs>
			<rect id="SVGID_7_" x="1.7" y="1.5" width="151.6" height="37"/>
		</defs>
		<clipPath id="SVGID_8_">
			<use xlink:href="#SVGID_7_"  style="overflow:visible;"/>
		</clipPath>
		<path class="st3" d="M122.8,20l-7.6-7.6c-0.1-0.1-0.3-0.1-0.4-0.1c-0.1,0.1-0.2,0.2-0.2,0.4v4.2h-12.3c0,0.4-0.1,0.8-0.1,1.3
			c0,1.9,0.3,3.8,1,5.6h11.4v4.2c0,0.1,0.1,0.3,0.2,0.4c0.1,0.1,0.3,0,0.4-0.1l7.6-7.6c0.1-0.1,0.1-0.2,0.1-0.3
			C122.9,20.1,122.9,20,122.8,20"/>
	</g>
	<g>
		<defs>
			<rect id="SVGID_9_" x="1.7" y="1.5" width="151.6" height="37"/>
		</defs>
		<clipPath id="SVGID_10_">
			<use xlink:href="#SVGID_9_"  style="overflow:visible;"/>
		</clipPath>
		<path class="st4" d="M138.2,13.2c0.6,0.3,1.3,0.6,2.1,0.8s1.8,0.5,2.9,0.8c1.5,0.4,2.9,0.9,4.2,1.4c1.2,0.5,2.3,1.1,3.2,1.9
			c0.9,0.8,1.5,1.6,2,2.7c0.5,1.1,0.7,2.3,0.7,3.8c0,1.8-0.3,3.4-1,4.6c-0.7,1.3-1.6,2.3-2.7,3.1c-1.1,0.8-2.4,1.3-3.9,1.7
			s-2.9,0.5-4.5,0.5c-1.2,0-2.4-0.1-3.6-0.3s-2.4-0.5-3.6-0.8c-1.2-0.3-2.3-0.8-3.4-1.3c-0.1,0-0.2-0.1-0.4-0.2
			c0.3-0.3,0.6-0.6,0.9-0.9c1.4-1.5,2.5-3.2,3.4-5c1,0.4,2.1,0.8,3.3,1.1c1.2,0.3,2.4,0.5,3.7,0.5c2.6,0,3.9-0.8,3.9-2.4
			c0-0.6-0.2-1.1-0.6-1.5c-0.4-0.4-0.9-0.8-1.6-1.1s-1.5-0.6-2.5-0.9c-0.9-0.3-2-0.6-3.1-0.9c-0.5-0.2-1-0.3-1.5-0.5
			c0.1-0.7,0.1-1.4,0.1-2.1c0-2.3-0.4-4.6-1.3-6.8c-0.8-2.2-2-4.2-3.6-6c0,0-0.1-0.1-0.1-0.1c0.4-0.4,0.8-0.9,1.2-1.2
			c1.1-0.9,2.4-1.6,3.8-2s3-0.7,4.6-0.7c1.1,0,2.2,0.1,3.3,0.3c1.1,0.2,2.1,0.5,3.1,0.8c1,0.3,1.9,0.7,2.8,1.1
			c0.9,0.4,1.7,0.8,2.4,1.3l-3.3,6.2c-0.1-0.1-0.4-0.4-0.9-0.7c-0.6-0.3-1.2-0.7-2-1.1c-0.8-0.4-1.7-0.7-2.7-1
			c-1-0.3-1.9-0.4-2.9-0.4c-2.7,0-4,0.9-4,2.7c0,0.6,0.1,1,0.4,1.4C137.2,12.6,137.7,12.9,138.2,13.2 M101.7,11.3
			c-0.9,2.2-1.3,4.6-1.3,6.9c0,1.7,0.2,3.4,0.7,5c-1.2,0.1-2.3,0.4-3.5,0.4H91V34h-7.4V1.6h13.8c1.5,0,3,0.3,4.3,1s2.4,1.5,3.3,2.5
			c0.1,0.2,0.3,0.3,0.4,0.5C103.8,7.2,102.6,9.1,101.7,11.3 M100.1,10.6c-0.2-0.6-0.5-1-0.8-1.4c-0.3-0.4-0.7-0.6-1.1-0.8
			s-0.8-0.3-1.3-0.3H91V17h6.1c0.9,0,1.6-0.4,2.3-1.1c0.6-0.8,0.9-1.9,0.9-3.3C100.3,11.8,100.2,11.1,100.1,10.6"/>
	</g>
</g>
</svg>
