<?xml version="1.0" encoding="utf-8"?>
<!-- Generator: Adobe Illustrator 23.0.1, SVG Export Plug-In . SVG Version: 6.00 Build 0)  -->
<svg version="1.1" id="Layer_1" xmlns="http://www.w3.org/2000/svg" xmlns:xlink="http://www.w3.org/1999/xlink" x="0px" y="0px"
	 viewBox="0 0 45.6 32.2" style="enable-background:new 0 0 45.6 32.2;" xml:space="preserve">
<style type="text/css">
	.st0{fill:#FF9811;}
	.st1{fill:#D67500;}
	.st2{fill:#787680;}
	.st3{fill:#ACABB1;}
	.st4{fill:#57565C;}
</style>
<g>
	<path class="st0" d="M41.6,0l3.9,5.5H0L4.7,0H41.6z"/>
	<path class="st1" d="M0,5.5h45.6v3.1H0V5.5z"/>
	<path class="st2" d="M7.1,8.7h2.4v18.1H7.1V8.7z"/>
	<path class="st2" d="M36.1,8.7h2.4v18.1h-2.4V8.7z"/>
	<path class="st3" d="M1.6,8.7h3.1v23.6H1.6V8.7z"/>
	<path class="st3" d="M40.9,8.7H44v23.6h-3.1V8.7z"/>
	<path class="st4" d="M7.1,8.7h2.4v0.8H7.1V8.7z"/>
	<path class="st4" d="M36.1,8.7h2.4v0.8h-2.4V8.7z"/>
	<g>
		<path class="st2" d="M1.6,8.7h3.1v1.6H1.6V8.7z"/>
		<path class="st2" d="M40.9,8.7H44v1.6h-3.1V8.7z"/>
	</g>
</g>
</svg>
